<?xml version="1.0" encoding="utf-8"?>
<!-- Generator: Fusion 360, Shaper Origin Export Add-In, Version 1.8.0  -->
<svg xmlns="http://www.w3.org/2000/svg" xmlns:xlink="http://www.w3.org/1999/xlink" xmlns:shaper="http://www.shapertools.com/namespaces/shaper" shaper:fusionaddin="version:1.8.0" width="20cm" height="14.7373336cm" version="1.1" x="0cm" y="0cm" viewBox="0 0 20 14.7373336" enable-background="new 0 0 20 14.7373336" xml:space="preserve"><path d="M-4.695,-4 a0.17,0.17 0 1,1 0.34,0 a0.17,0.17 0 1,1 -0.34,0z" transform="matrix(1,0,0,-1,10,8.1874076)" fill="rgb(0,0,0)" stroke-linecap="round" stroke-linejoin="round" /><path d="M-6.6143783,-4.5 L-4.2,-4.5 -4.2,2.5 -7.5993421,2.5 A8,8 161.7900431 0,0 -4.593307,6.549926 L-5.7416337,8.1874076 A10,10 125.0410635 0,1 -7.5563529,-6.549926 L-4.593307,-6.549926 A8,8 234.9589365 0,0 -6.6143783,-4.5z" transform="matrix(1,0,0,-1,10,8.1874076)" fill="rgb(0,0,0)" stroke-linecap="round" stroke-linejoin="round" /><path d="M-4.695,2 a0.17,0.17 0 1,1 0.34,0 a0.17,0.17 0 1,1 -0.34,0z" transform="matrix(1,0,0,-1,10,8.1874076)" fill="rgb(0,0,0)" stroke-linecap="round" stroke-linejoin="round" /><path d="M4.355,2 a0.17,0.17 0 1,1 0.34,0 a0.17,0.17 0 1,1 -0.34,0z" transform="matrix(1,0,0,-1,10,8.1874076)" fill="rgb(0,0,0)" stroke-linecap="round" stroke-linejoin="round" /><path d="M4.355,-4 a0.17,0.17 0 1,1 0.34,0 a0.17,0.17 0 1,1 -0.34,0z" transform="matrix(1,0,0,-1,10,8.1874076)" fill="rgb(0,0,0)" stroke-linecap="round" stroke-linejoin="round" /><path d="M4.2,-4.5 L4.2,2.5 7.5993421,2.5 A8,8 18.2099569 0,1 4.593307,6.549926 L5.7416337,8.1874076 A10,10 54.9589365 0,0 7.5563529,-6.549926 L4.593307,-6.549926 A8,8 305.0410635 0,1 6.6143783,-4.5 L4.2,-4.5z" transform="matrix(1,0,0,-1,10,8.1874076)" fill="rgb(0,0,0)" stroke-linecap="round" stroke-linejoin="round" /><path d="M-4.695,-4 a0.17,0.17 0 1,1 0.34,0 a0.17,0.17 0 1,1 -0.34,0z" transform="matrix(1,0,0,-1,10,8.1874076)" fill="rgb(255,255,255)" stroke="rgb(0,0,0)" stroke-width="0.0010cm" stroke-linecap="round" stroke-linejoin="round" /><path d="M-4.695,2 a0.17,0.17 0 1,1 0.34,0 a0.17,0.17 0 1,1 -0.34,0z" transform="matrix(1,0,0,-1,10,8.1874076)" fill="rgb(255,255,255)" stroke="rgb(0,0,0)" stroke-width="0.0010cm" stroke-linecap="round" stroke-linejoin="round" /><path d="M4.355,-4 a0.17,0.17 0 1,1 0.34,0 a0.17,0.17 0 1,1 -0.34,0z" transform="matrix(1,0,0,-1,10,8.1874076)" fill="rgb(255,255,255)" stroke="rgb(0,0,0)" stroke-width="0.0010cm" stroke-linecap="round" stroke-linejoin="round" /><path d="M4.355,2 a0.17,0.17 0 1,1 0.34,0 a0.17,0.17 0 1,1 -0.34,0z" transform="matrix(1,0,0,-1,10,8.1874076)" fill="rgb(255,255,255)" stroke="rgb(0,0,0)" stroke-width="0.0010cm" stroke-linecap="round" stroke-linejoin="round" /></svg>